<svg xmlns="http://www.w3.org/2000/svg" viewBox="0 0 420 520" fill="none">
  <g stroke="#596b50" stroke-width="2" stroke-linecap="round" stroke-linejoin="round">
    <path d="M208 507c-5-94 5-190 25-286 14-68 35-133 63-195"/>
    <path d="M226 292c-50-28-91-67-122-117M239 233c45-24 84-57 116-99M214 360c-53-17-101-45-143-84M220 327c42-12 81-32 116-62M207 422c-40-8-77-24-111-48"/>
    <path d="M105 176c-25-5-45-20-59-44 28-1 49 11 59 44ZM153 230c-29 0-53-12-72-34 29-7 53 5 72 34ZM92 277c-28-1-51-13-69-36 30-5 53 7 69 36ZM117 375c-25 4-48-3-68-21 25-10 48-3 68 21ZM355 134c21-13 44-16 68-8-16 20-39 23-68 8ZM337 264c25-8 49-5 71 9-21 16-45 13-71-9Z"/>
    <circle cx="298" cy="26" r="8"/>
    <path d="M297 18c-8-17-4-30 11-40M304 21c18-8 31-4 41 11M299 34c7 17 3 30-12 39M287 28c-17 8-30 4-40-10"/>
  </g>
</svg>
